<svg xmlns="http://www.w3.org/2000/svg" width="30" height="30" viewBox="0 0 38 29.13"><defs><style>.cls-1{fill:#fff;}</style></defs><g id="Calque_2" data-name="Calque 2"><g id="Calque_1-2" data-name="Calque 1"><path class="cls-1" d="M37.8,13.64a7.68,7.68,0,0,0-2-3.77,8.22,8.22,0,0,0-3.58-2.29,7.5,7.5,0,0,0-3.9-.16,7.37,7.37,0,0,0-3.46,1.92,7.48,7.48,0,0,0-1.2,1.48,10.52,10.52,0,0,0-.82-1.23l1.1-1.05,1.38-1.33,3.86-3.69L25.75,0l-.26.25-.08.08-3.11,3-1.15,1.1-1.8,1.72-2,2-.63.6L16.33,9l-.63.6-.08.08-4.7,4.51,3.32,3.47,0,.05L18.2,14l.44-.41.45.61a3.56,3.56,0,0,1,.29.7,4.66,4.66,0,0,1,.2,1,8.5,8.5,0,0,1-.23,1.5,9.39,9.39,0,0,1-4.6,5.35A9.35,9.35,0,0,1,3.84,21L0,24.7a14.68,14.68,0,0,0,2,1.74A14.47,14.47,0,0,0,8.81,29a15.11,15.11,0,0,0,1.52.1A14.4,14.4,0,0,0,12.61,29,14.64,14.64,0,0,0,24.9,17.16a14,14,0,0,1,.54-1.57,6.66,6.66,0,0,1,.68-1.28A6.75,6.75,0,0,1,27,13.25a3.48,3.48,0,0,1,3.42-.9,3.42,3.42,0,0,1,1.57,1,3.38,3.38,0,0,1,.87,1.59,3.29,3.29,0,0,1-.08,1.76,4,4,0,0,1-1,1.59,5.81,5.81,0,0,1-2.2,1.35,8.63,8.63,0,0,1-3.2.22l.18,4.44a9.1,9.1,0,0,0,4.61-.17,10,10,0,0,0,4.09-2.45,8.63,8.63,0,0,0,2.38-3.78A8.28,8.28,0,0,0,37.8,13.64Z"/></g></g></svg>