<svg xmlns="http://www.w3.org/2000/svg" width="30" height="30" viewBox="0 0 110.67 110.67"><defs><style>.cls-1{fill:#fff;}</style></defs><g id="Calque_2" data-name="Calque 2"><g id="Calque_1-2" data-name="Calque 1"><path class="cls-1" d="M109.39,102.69,80.54,74.19a4.3,4.3,0,1,0-6,6.12l28.85,28.5a4.3,4.3,0,0,0,6-6.12Z"/><path class="cls-1" d="M30.13,36.48a4.3,4.3,0,1,0,6-6.12L7.32,1.87A4.3,4.3,0,1,0,1.28,8Z"/><path class="cls-1" d="M30.36,74.5,1.87,103.35a4.3,4.3,0,1,0,6.12,6L36.48,80.54a4.3,4.3,0,1,0-6.12-6Z"/><path class="cls-1" d="M55.33,28.45h0a4.25,4.25,0,0,0,4.25-4.25V5.82a4.25,4.25,0,0,0-4.25-4.25h0A4.29,4.29,0,0,0,51,5.87V24.15A4.3,4.3,0,0,0,55.33,28.45Z"/><path class="cls-1" d="M5.82,51.08a4.25,4.25,0,0,0-4.25,4.26,4.31,4.31,0,0,0,4.3,4.3H24.15a4.28,4.28,0,0,0,.05-8.56Z"/><path class="cls-1" d="M104.85,51H86.47a4.25,4.25,0,0,0-4.25,4.25,4.31,4.31,0,0,0,4.3,4.3H104.8a4.3,4.3,0,0,0,4.3-4.3A4.25,4.25,0,0,0,104.85,51Z"/><path class="cls-1" d="M55.4,82.22h0a4.31,4.31,0,0,0-4.3,4.3V104.8a4.3,4.3,0,0,0,4.31,4.3h0a4.25,4.25,0,0,0,4.25-4.25V86.47A4.25,4.25,0,0,0,55.4,82.22Z"/><path class="cls-1" d="M80.31,36.18l28.5-28.86a4.3,4.3,0,0,0-6.12-6L74.19,30.13a4.3,4.3,0,0,0,6.12,6.05Z"/></g></g></svg>