<svg xmlns="http://www.w3.org/2000/svg" width="30" height="30" viewBox="0 0 138.42 165.37"><defs><style>.cls-1{fill:#fff;}</style></defs><g id="Calque_2" data-name="Calque 2"><g id="Calque_1-2" data-name="Calque 1"><path class="cls-1" d="M138.05,83.59h0v0c0-.42-.09-.85-.13-1.27a.68.68,0,0,1,0-.14c-.05-.38-.09-.76-.14-1.14l0-.21c0-.36-.1-.72-.16-1.07,0-.08,0-.16,0-.24l-.18-1c0-.08,0-.16,0-.24-.07-.35-.14-.7-.22-1,0-.06,0-.11,0-.17a30.53,30.53,0,0,0-1-3.46l-.09-.23c-.1-.27-.2-.54-.31-.79a3.27,3.27,0,0,0-.14-.33c-.1-.22-.19-.44-.29-.65l-.18-.35-.3-.56-.21-.35c-.1-.17-.21-.34-.32-.5l-.23-.33a5.3,5.3,0,0,0-.34-.45,2.48,2.48,0,0,0-.25-.3,5.11,5.11,0,0,0-.39-.42,3,3,0,0,0-.25-.25,4.4,4.4,0,0,0-.46-.4l-.22-.19a8.73,8.73,0,0,0-.74-.5,8.22,8.22,0,0,0-6.42-.6c-5,1.34-10.84,6.31-16,14.38C107,35.42,90.65.26,70.37,0S32.91,34.46,29.76,79.68c-7.27-12-16.21-17.41-22-14.24A7,7,0,0,0,7,66l-.24.19c-.18.14-.35.29-.52.45L6,66.84c-.17.17-.33.35-.49.53l-.2.23c-.22.27-.43.55-.63.85a.41.41,0,0,1,0,.09c-.18.27-.35.56-.52.85l-.17.32c-.12.23-.25.47-.36.72s-.12.23-.17.35-.23.54-.35.82l-.12.29-.42,1.18s0,.09,0,.14c-.12.36-.23.72-.33,1.09,0,.12-.07.25-.11.37l-.24.94L1.67,76l-.24,1.07a2.21,2.21,0,0,1-.05.25c-.09.46-.18.92-.26,1.39,0,0,0,.08,0,.13-.07.42-.14.84-.2,1.27,0,.11,0,.23-.05.34L.7,81.57c0,.11,0,.22,0,.33-.05.44-.1.88-.14,1.32v.09c0,.5-.09,1-.14,1.51h0C0,89.62,0,94.29,0,97.56c0,.46,0,3.13.37,7.13,1.11,13.16,5.52,40.78,23,51.65A28.35,28.35,0,0,0,32.27,160a69.88,69.88,0,0,0,10.4,2.89c8.53,1.72,19.16,2.59,32.23,2.49a118.29,118.29,0,0,0,18.84-1.46,55.74,55.74,0,0,0,12-3.27l.44-.17a28.38,28.38,0,0,0,7.27-3c19.24-11.28,23.64-42.55,24.61-54,.2-2.34.25-3.86.26-4.2A133.49,133.49,0,0,0,138.05,83.59Z"/></g></g></svg>