<svg width="24" height="24" viewBox="0 0 24 24" fill="none" xmlns="http://www.w3.org/2000/svg">
<g clip-path="url(#clip0_22_138)">
<path d="M18.375 0H5.625C2.5184 0 0 2.5184 0 5.625V18.375C0 21.4816 2.5184 24 5.625 24H18.375C21.4816 24 24 21.4816 24 18.375V5.625C24 2.5184 21.4816 0 18.375 0Z" fill="#330000"/>
<path d="M11.6 14.2812H7.87997L7.11994 16.6312C7.09997 16.7212 7.02 16.7812 6.93 16.7712H5.04994C4.93997 16.7712 4.90997 16.7112 4.93997 16.5912L8.16 7.32116C8.19 7.22122 8.22 7.11116 8.25994 6.99116C8.29997 6.78116 8.31994 6.56122 8.31994 6.34119C8.31 6.29122 8.34994 6.24116 8.4 6.23122H10.9899C11.07 6.23122 11.1099 6.26122 11.12 6.31119L14.7699 16.6112C14.7999 16.7212 14.7699 16.7712 14.67 16.7712H12.5799C12.51 16.7812 12.44 16.7312 12.42 16.6612L11.6 14.2812ZM8.46 12.2512H11C10.94 12.0412 10.86 11.7912 10.77 11.5312C10.68 11.2612 10.59 10.9712 10.5 10.6712C10.4 10.3612 10.31 10.0612 10.2099 9.75116C10.11 9.44122 10.02 9.15116 9.93994 8.86119C9.85997 8.58125 9.78994 8.32119 9.72 8.08119H9.69994C9.60994 8.51122 9.49997 8.94125 9.36 9.37119C9.21 9.85119 9.06 10.3512 8.89997 10.8512C8.77082 11.3232 8.62406 11.7902 8.46 12.2512ZM17 7.98116C16.67 7.99119 16.35 7.86116 16.11 7.63119C15.88 7.38116 15.76 7.05116 15.77 6.71122C15.76 6.37119 15.89 6.05122 16.13 5.82116C16.37 5.59119 16.69 5.47119 17.02 5.47119C17.41 5.47119 17.71 5.59119 17.93 5.82116C18.1516 6.06361 18.27 6.3829 18.26 6.71122C18.27 7.05116 18.15 7.38116 17.91 7.63119C17.68 7.87119 17.34 8.00122 17 7.98116ZM15.88 16.6612V8.96122C15.88 8.86119 15.92 8.82116 16.01 8.82116H17.99C18.08 8.82116 18.12 8.87122 18.12 8.96122V16.6612C18.12 16.7712 18.08 16.8212 17.99 16.8212H16.03C15.93 16.8212 15.88 16.7612 15.88 16.6612Z" fill="#FF9A00"/>
</g>
<defs>
<clipPath id="clip0_22_138">
<rect width="24" height="24" fill="white"/>
</clipPath>
</defs>
</svg>
