<svg xmlns="http://www.w3.org/2000/svg" width="30" height="30" viewBox="0 0 100 121.63"><defs><style>.cls-1{fill:#fff;}</style></defs><g id="Calque_2" data-name="Calque 2"><g id="Calque_1-2" data-name="Calque 1"><path class="cls-1" d="M100,71.08v-.17c0-.2,0-.41,0-.61v.32c0,.14,0,.29,0,.44,0-.31,0-.61,0-.91A33.1,33.1,0,0,0,61.52,39c.11-.1.2-.21.3-.31a24.82,24.82,0,0,0,6.71-13.35c.06-.36.14-.71.18-1.07.07-.57.09-1.13.12-1.69s0-1.2,0-1.79A24.68,24.68,0,0,0,57,0L20.14,28.7v0a51.43,51.43,0,0,0-20,40.42A15.54,15.54,0,0,0,0,71.08c0,.17,0,.33,0,.5s0,.18,0,.28a16.35,16.35,0,0,0,.13,2c0,.1,0,.19,0,.29,0,.34.09.69.16,1a52.23,52.23,0,0,0,15.65,33,49.92,49.92,0,0,0,68.15,0c.94-.91,1.83-1.85,2.7-2.82A52.33,52.33,0,0,0,99.67,76.32q.18-1.36.24-2.76A13,13,0,0,0,100,72s0-.11,0-.16v-.17c0-.14,0-.27,0-.41v0C100,71.19,100,71.14,100,71.08Z"/></g></g></svg>