<svg width="10" height="10" viewBox="0 0 10 10" fill="none" xmlns="http://www.w3.org/2000/svg">
<path d="M4.53114 1.26725C4.69221 0.831945 5.30791 0.831944 5.46899 1.26725L6.27073 3.43393C6.32137 3.57079 6.42928 3.67869 6.56614 3.72933L8.73281 4.53107C9.16812 4.69215 9.16812 5.30785 8.73281 5.46893L6.56614 6.27067C6.42928 6.32131 6.32137 6.42922 6.27073 6.56608L5.46899 8.73275C5.30791 9.16806 4.69221 9.16806 4.53114 8.73275L3.72939 6.56608C3.67875 6.42922 3.57085 6.32131 3.43399 6.27067L1.26731 5.46893C0.832006 5.30785 0.832005 4.69215 1.26731 4.53107L3.43399 3.72933C3.57085 3.67869 3.67875 3.57079 3.72939 3.43393L4.53114 1.26725Z" fill="white"/>
</svg>
