<svg xmlns="http://www.w3.org/2000/svg" width="30" height="30" viewBox="0 0 168.38 180.19"><defs><style>.cls-1{fill:#fff;}</style></defs><g id="Calque_2" data-name="Calque 2"><g id="Calque_1-2" data-name="Calque 1"><path class="cls-1" d="M.18,178.69h0a100.8,100.8,0,0,1,5-38c3.59-10.69,7.34-21.85,18-31,15.58-13.37,35-13.06,39-13,9.25.15,9.27,2.34,29,5,14.81,2,22.33,3,28,1,16.45-5.67,22.86-24.63,24-28,1.74-5.16,7.54-27.27-3.5-42.5-6.54-9-23.6-12.82-37-8-10.25,3.69-11.1,11.49-11.5,12.5-1.25,3.15-4.05,9.81-1,17C92.79,59.84,99,64,104.68,65.19s9-.87,13,2c2,1.44,4.47,4.3,4,7-.93,5.32-12.66,6.83-14,7-14,1.8-24.92-6.18-26-7-10.25-7.72-13.13-18.52-14-22-3.15-12.57-1.33-30.57,11-41,10.75-9.09,25.26-12,38-11,8.94.71,22.8,5.9,34,15,22.28,18.11,23.42,62.13,4,89-13.15,18.2-39.08,33.17-62,31-6.39-.6-12.51-2.53-21,0-1.83.55-20.31,6.06-26,24a36,36,0,0,0,0,21"/></g></g></svg>