<svg width="24" height="24" viewBox="0 0 24 24" fill="none" xmlns="http://www.w3.org/2000/svg">
<g clip-path="url(#clip0_22_142)">
<path d="M18.375 0H5.625C2.5184 0 0 2.5184 0 5.625V18.375C0 21.4816 2.5184 24 5.625 24H18.375C21.4816 24 24 21.4816 24 18.375V5.625C24 2.5184 21.4816 0 18.375 0Z" fill="#001E36"/>
<path d="M5.39999 16.6913V6.40129C5.39999 6.33126 5.42999 6.29132 5.50003 6.29132C5.66999 6.29132 5.83003 6.29132 6.05999 6.28129C6.29999 6.27126 6.55003 6.27126 6.82003 6.26132C7.09003 6.25129 7.37999 6.25129 7.69003 6.24126C7.99996 6.23132 8.29996 6.23132 8.59996 6.23132C9.41999 6.23132 10.1 6.33126 10.66 6.54126C11.162 6.71175 11.6197 6.99187 12 7.36129C12.3222 7.68459 12.5712 8.07337 12.73 8.50129C12.88 8.92129 12.96 9.35132 12.96 9.80132C12.96 10.6613 12.76 11.3713 12.36 11.9313C11.96 12.4913 11.4 12.9113 10.75 13.1513C10.07 13.4013 9.31996 13.4913 8.50003 13.4913C8.26003 13.4913 8.09999 13.4913 7.99996 13.4813C7.90003 13.4713 7.75996 13.4713 7.57003 13.4713V16.6813C7.57996 16.7513 7.52999 16.8113 7.45996 16.8213H5.51999C5.44003 16.8213 5.39999 16.7813 5.39999 16.6913ZM7.57996 8.22126V11.5813C7.72003 11.5913 7.84996 11.6013 7.96996 11.6013H8.50003C8.89003 11.6013 9.28003 11.5413 9.64996 11.4213C9.97003 11.3313 10.25 11.1413 10.47 10.8913C10.68 10.6413 10.78 10.3013 10.78 9.86132C10.7894 9.54881 10.7096 9.24008 10.55 8.97126C10.38 8.71129 10.14 8.51132 9.85003 8.40126C9.47999 8.25126 9.07996 8.19126 8.66999 8.20129C8.41003 8.20129 8.17996 8.20129 7.99003 8.21132C7.78996 8.20129 7.64999 8.21132 7.57996 8.22126ZM19.2 10.9713C18.9 10.8113 18.58 10.7013 18.24 10.6313C17.87 10.5513 17.5 10.5013 17.12 10.5013C16.92 10.4913 16.71 10.5213 16.52 10.5713C16.39 10.6013 16.28 10.6713 16.21 10.7713C16.16 10.8513 16.13 10.9513 16.13 11.0413C16.13 11.1313 16.17 11.2213 16.23 11.3013C16.32 11.4113 16.44 11.5013 16.57 11.5713C16.8019 11.6914 17.0387 11.8015 17.28 11.9013C17.82 12.0813 18.34 12.3313 18.82 12.6313C19.15 12.8413 19.42 13.1213 19.61 13.4613C19.77 13.7813 19.85 14.1313 19.84 14.4913C19.85 14.9613 19.71 15.4313 19.45 15.8213C19.1711 16.2205 18.7819 16.5297 18.33 16.7113C17.84 16.9213 17.24 17.0313 16.52 17.0313C16.06 17.0313 15.61 16.9913 15.16 16.9013C14.8073 16.8404 14.4643 16.7328 14.14 16.5813C14.07 16.5413 14.02 16.4713 14.03 16.3913V14.6513C14.03 14.6213 14.04 14.5813 14.07 14.5613C14.1 14.5413 14.13 14.5513 14.16 14.5713C14.55 14.8013 14.96 14.9613 15.4 15.0613C15.78 15.1613 16.18 15.2113 16.58 15.2113C16.96 15.2113 17.23 15.1613 17.41 15.0713C17.57 15.0013 17.68 14.8313 17.68 14.6513C17.68 14.5113 17.6 14.3813 17.44 14.2513C17.28 14.1213 16.95 13.9713 16.46 13.7813C15.9573 13.6042 15.48 13.3621 15.04 13.0613C14.7267 12.8379 14.467 12.5476 14.28 12.2113C14.12 11.8913 14.04 11.5413 14.05 11.1913C14.05 10.7613 14.17 10.3513 14.39 9.98132C14.64 9.58129 15.01 9.26132 15.44 9.06126C15.91 8.82126 16.5 8.71129 17.21 8.71129C17.62 8.71129 18.04 8.74129 18.45 8.80129C18.75 8.84132 19.04 8.92129 19.31 9.03126C19.35 9.04129 19.39 9.08132 19.41 9.12126C19.42 9.16129 19.43 9.20132 19.43 9.24126V10.8713C19.43 10.9113 19.41 10.9513 19.38 10.9713C19.29 10.9913 19.24 10.9913 19.2 10.9713Z" fill="#31A8FF"/>
</g>
<defs>
<clipPath id="clip0_22_142">
<rect width="24" height="24" fill="white"/>
</clipPath>
</defs>
</svg>
