<svg id="Calque_1" width="24px" height="24px" data-name="Calque 1" xmlns="http://www.w3.org/2000/svg" viewBox="0 0 256 256"><defs><style>.cls-1{fill:none;}.cls-2{fill:#8fefef;}.cls-10,.cls-2,.cls-6,.cls-7,.cls-9{fill-opacity:0.78;}.cls-3{fill:#519ace;}.cls-4{fill:#3996ac;}.cls-5{fill:#68a0c5;}.cls-6{fill:#72cdd6;}.cls-7{fill:#5fbdff;}.cls-8{fill:#50afad;}.cls-9{fill:#5dd8d5;}.cls-10{fill:#40b7d3;}.cls-11{fill:#77c1c1;}</style></defs><path class="cls-1" d="M30.75,177.61a72,72,0,0,0,8.47,4.25,40.69,40.69,0,0,0,15.68,2.49,40.67,40.67,0,0,1-15.67-2.49A71.36,71.36,0,0,1,30.75,177.61Z"/><path class="cls-1" d="M7.39,142.8A23.06,23.06,0,0,0,6,147.9a23.18,23.18,0,0,1,1.44-5.1c5.09-11.33,17.51-17.47,29.93-17.59C24.94,125.32,12.51,131.45,7.39,142.8Z"/><path class="cls-1" d="M84.79,138.91c-2.65-1.38-5.05-2.6-7.15-3.63C79.73,136.32,82.13,137.55,84.79,138.91Z"/><path class="cls-1" d="M74.18,33.84C78.36,23.56,89,8.94,93.51,2.92,89,8.94,78.35,23.56,74.13,33.84c-8.35,20.64,5,58.48,20.13,91.48-2.26,4.94-4.44,10-6.56,15.09l0,0c2.12-5.11,4.31-10.11,6.57-15.11C79.21,92.31,65.83,54.48,74.18,33.84Z"/><path class="cls-1" d="M130.74,216.2c.72,13.22-5.46,27-17.55,32.44a22.28,22.28,0,0,1-5,1.41,46.11,46.11,0,0,1-6.31.58,46.4,46.4,0,0,0,6.33-.58,22.28,22.28,0,0,0,5-1.41c12.09-5.44,18.27-19.22,17.55-32.44a92,92,0,0,0-8.13-33.86c-.65-1.39-1.46-3.07-2.4-5,.93,1.88,1.73,3.55,2.38,5A92,92,0,0,1,130.74,216.2Z"/><path class="cls-1" d="M74.1,181.92h0c-2.92,13.63-3.54,25.91.08,34.86,5.15,12.64,20.07,31.89,21.35,33.54-1.15-.14-2.28-.38-3.41-.59.81.25,1.6.56,2.42.78l1.27.12-.24-.31h0c-1.28-1.65-16.2-20.9-21.35-33.54-3.62-8.95-3-21.23-.05-34.87,13.06-2.81,27.33-7.75,41.45-13.63h0c-14.13,5.88-28.41,10.83-41.48,13.64Z"/><path class="cls-1" d="M106.16,149.86c3.42,6.84,6.65,13.06,9.42,18.42C112.81,162.92,109.6,156.7,106.16,149.86Z"/><path class="cls-2" d="M130.69,161.7l-.24-.1c-8.57-3.93-16.77-7.95-24.29-11.74,3.44,6.84,6.65,13.06,9.42,18.42C120.69,166.16,125.69,164,130.69,161.7Z"/><path class="cls-3" d="M255.41,147.9a22.07,22.07,0,0,0-1.41-5.1c-5.46-12.09-19.19-18.27-32.43-17.53a91.88,91.88,0,0,0-33.88,8.11c-9.84,4.54-31.91,16.85-56.76,28.22l-.24.1,3.1,1.41c32.23,14.52,68.37,26.83,88.35,18.75.79-.32,1.61-.68,2.45-1.07,12.56-5.89,29.58-19.11,31.12-20.32h0A46.43,46.43,0,0,0,255.41,147.9Z"/><path class="cls-4" d="M224.59,180.79c-.84.39-1.66.75-2.45,1.07-20,8.08-56.12-4.23-88.35-18.75l-3.1-1.41c-5,2.27-10,4.46-15.11,6.58h0c1.75,3.41,3.31,6.47,4.62,9.11.94,1.88,1.75,3.56,2.4,5a92,92,0,0,1,8.13,33.86c.72,13.22-5.46,27-17.55,32.44a22.28,22.28,0,0,1-5,1.41,46.4,46.4,0,0,1-6.33.58,47.83,47.83,0,0,1-6.33-.3l.24.31-1.27-.12c-.82-.22-1.61-.53-2.42-.78l-.1,0-.1,0a45.09,45.09,0,0,1-5.51-1.45A129.49,129.49,0,0,0,128.58,256h4.24A129.66,129.66,0,0,0,255.1,163.94c.22-1.16.48-2.31.61-3.47h0C254.17,161.68,237.15,174.9,224.59,180.79Z"/><path class="cls-5" d="M106.16,149.86c-3.79-7.53-7.81-15.72-11.74-24.3l-.11-.24c-2.26,5-4.45,10-6.57,15.11C93.1,143.2,99.31,146.41,106.16,149.86Z"/><path class="cls-6" d="M81.58,156.32a207.33,207.33,0,0,0-7.48,25.6c13.07-2.81,27.35-7.76,41.48-13.64-2.77-5.36-6-11.58-9.42-18.42-6.85-3.45-13.06-6.66-18.42-9.43C85.53,145.73,83.46,151.05,81.58,156.32Z"/><path class="cls-7" d="M74.18,216.79c5.15,12.64,20.07,31.89,21.35,33.54h0a47.83,47.83,0,0,0,6.33.3,46.11,46.11,0,0,0,6.31-.58,22.28,22.28,0,0,0,5-1.41c12.09-5.46,18.27-19.22,17.55-32.44a92,92,0,0,0-8.13-33.86c-.65-1.4-1.45-3.07-2.38-5-1.31-2.64-2.87-5.7-4.62-9.11h0c-14.12,5.88-28.39,10.82-41.45,13.63C71.18,195.56,70.56,207.84,74.18,216.79Z"/><path class="cls-8" d="M93.51,2.92C89,8.94,78.36,23.56,74.18,33.84c-8.35,20.64,5,58.47,20.13,91.48l.11-.24c11.39-24.84,23.67-46.9,28.21-56.78a92.1,92.1,0,0,0,8.13-33.88c.72-13.23-5.46-27-17.55-32.44a23.06,23.06,0,0,0-5.1-1.39A46.25,46.25,0,0,0,95.51.3h0C95.25.63,94.53,1.56,93.51,2.92Z"/><path class="cls-2" d="M6,147.9a23.06,23.06,0,0,1,1.39-5.1c5.12-11.35,17.55-17.48,30-17.59.84,0,1.67,0,2.5.06a91.87,91.87,0,0,1,33.87,8.11c1.13.53,2.44,1.17,3.9,1.9,2.1,1,4.5,2.25,7.15,3.63l2.91,1.5c2.12-5.09,4.3-10.15,6.56-15.09-15.1-33-28.48-70.84-20.13-91.48C78.35,23.56,89,8.94,93.51,2.92c1-1.36,1.74-2.29,2-2.62h0c-1.22.14-2.43.4-3.64.63A129.74,129.74,0,0,0,0,123.18v4.26a130,130,0,0,0,7.79,42.27A45.17,45.17,0,0,1,6.31,164c-.26-.84-.58-1.65-.82-2.5a8.93,8.93,0,0,1-.11-1.26l.32.25h0A46,46,0,0,1,6,147.9Z"/><path class="cls-9" d="M30.75,177.61a71.36,71.36,0,0,0,8.48,4.25,40.67,40.67,0,0,0,15.67,2.49,97.92,97.92,0,0,0,19.18-2.43h0a207.33,207.33,0,0,1,7.48-25.6c1.88-5.27,4-10.59,6.16-15.89l0,0-2.91-1.5c-2.66-1.36-5.06-2.59-7.15-3.63-1.46-.73-2.77-1.37-3.9-1.9a91.87,91.87,0,0,0-33.87-8.11c-.83,0-1.66-.06-2.5-.06-12.42.12-24.84,6.26-29.93,17.59A23.18,23.18,0,0,0,6,147.9a46,46,0,0,0-.31,12.57h0A244.32,244.32,0,0,0,30.75,177.61Z"/><path class="cls-10" d="M92.1,249.74c1.13.21,2.26.45,3.41.59-1.28-1.65-16.2-20.9-21.35-33.54-3.62-8.95-3-21.23-.08-34.86h0a97.92,97.92,0,0,1-19.18,2.43,40.69,40.69,0,0,1-15.68-2.49,72,72,0,0,1-8.47-4.25,244.32,244.32,0,0,1-25-17.14h0c.13,1.18.39,2.34.61,3.5a129.94,129.94,0,0,0,28.94,50.43c.92,1,1.87,1.92,2.82,2.87,1.23,1.25,2.47,2.49,3.76,3.69,2,1.87,4.11,3.7,6.26,5.44l.76.64A129.93,129.93,0,0,0,91.9,249.69l.1,0Z"/><path class="cls-11" d="M171,77.93A5.33,5.33,0,0,0,178.06,85l22.39-10.3a5.32,5.32,0,0,1,4.46,0L227.3,85a5.24,5.24,0,0,0,3.17.4,5.34,5.34,0,0,0,4.31-4.31,5.4,5.4,0,0,0-.4-3.17l-10.3-22.39a5.32,5.32,0,0,1,0-4.46l10.3-22.39a5.33,5.33,0,0,0-7.08-7.07l-22.39,10.3a5.32,5.32,0,0,1-4.46,0l-22.39-10.3A5.33,5.33,0,0,0,171,28.68l10.29,22.4a5.32,5.32,0,0,1,0,4.46Z"/></svg>