<svg width="126" height="141" viewBox="0 0 126 141" fill="none" xmlns="http://www.w3.org/2000/svg">
<path d="M45.9127 112.065C47.2709 119.933 69.4941 138.536 95.5038 117.681C143.146 79.4811 73.9085 14.6147 28.1215 73.9966C15.7868 89.9937 45.1553 97.0187 45.9127 112.065Z" fill="url(#paint0_linear_43_15)"/>
<path d="M17.2109 42.0603C10.0442 42.0603 8.97346 43.6253 5.73848 46.9369C-0.00817364 53.3104 8.62261 71.09 8.62261 79.0185C8.62261 84.8139 -1.08231 90.6092 1.15729 103.028C3.39688 115.446 13.1018 122.07 22.8067 126.209C32.5116 130.349 47.4423 111.307 57.8937 103.028C68.3452 94.7488 92.9807 108.823 101.193 111.307C109.404 113.791 123.589 92.2651 120.602 82.3302C117.616 72.3953 102.686 60.8045 113.137 52.5254C123.589 44.2463 128.068 -21.1584 92.9807 6.99047C57.8937 35.1393 26.1693 42.0603 17.2109 42.0603Z" fill="url(#paint1_linear_43_15)"/>
<defs>
<linearGradient id="paint0_linear_43_15" x1="52.097" y1="53.9908" x2="81.8064" y2="123.333" gradientUnits="userSpaceOnUse">
<stop stop-color="#FF00E6"/>
<stop offset="0.425" stop-color="#EE3FDD"/>
<stop offset="0.67" stop-color="#CED04B"/>
<stop offset="1" stop-color="#EDD554"/>
</linearGradient>
<linearGradient id="paint1_linear_43_15" x1="121.009" y1="4.09273e-06" x2="-6.54245" y2="102.506" gradientUnits="userSpaceOnUse">
<stop stop-color="#EE3FDD"/>
<stop offset="0.279244" stop-color="#583FEE" stop-opacity="0.78"/>
<stop offset="1" stop-color="#583FEE" stop-opacity="0.5"/>
</linearGradient>
</defs>
</svg>
