<svg width="50" height="50" viewBox="0 0 50 50" fill="none" xmlns="http://www.w3.org/2000/svg">
<rect width="50" height="50" rx="12" fill="white"/>
<path d="M11 23.1499C11 18.2677 12.396 14.3619 15.188 11.4325C17.98 8.47752 21.7993 7 26.6458 7C28.1998 7 29.3061 7.30835 29.9646 7.92505C30.6494 8.51606 30.9918 9.44111 30.9918 10.7002C30.9918 10.8801 30.9655 11.227 30.9128 11.7409C31.8874 10.97 32.9673 10.5846 34.1526 10.5846C35.7593 10.5846 37.129 11.2912 38.2616 12.7045C39.4205 14.0921 40 16.0964 40 18.7173C40 23.394 38.7752 27.2227 36.3256 30.2034C33.9024 33.1842 30.8996 34.9957 27.3174 35.6381V35.8694C28.8978 36.0749 30.1094 36.1777 30.9523 36.1777C33.5336 36.1777 35.891 35.7923 38.0245 35.0214C38.3143 35.7923 38.4591 36.6403 38.4591 37.5653C38.4591 39.1071 37.9718 40.3919 36.9973 41.4197C36.0227 42.4732 34.6004 43 32.7302 43C29.2534 43 25.1049 41.651 20.2847 38.9529C19.0204 40.6231 17.4005 41.4582 15.4251 41.4582C14.3978 41.4582 13.5945 41.1242 13.015 40.4561C12.4355 39.8137 12.1458 39.03 12.1458 38.1049C12.1458 37.1799 12.554 36.3319 13.3706 35.561C14.2134 34.7902 15.3987 34.4047 16.9264 34.4047V34.0964C15.0036 33.0171 13.5286 31.5396 12.5014 29.6638C11.5005 27.7623 11 25.591 11 23.1499ZM30.7153 24.9615C29.0295 22.9572 28.1866 20.7987 28.1866 18.4861C28.1866 16.1734 28.7134 14.3105 29.767 12.8972C29.2929 12.8201 28.8188 12.7816 28.3447 12.7816C26.4746 12.7816 24.8547 13.334 23.485 14.439C20.9037 16.4946 19.6131 19.3469 19.6131 22.9957C19.6131 25.0771 20.0872 26.8116 21.0354 28.1991C21.9837 29.5867 23.3006 30.2805 24.9864 30.2805C26.277 30.2805 27.4491 29.7923 28.5027 28.8158C29.5827 27.8137 30.3202 26.5289 30.7153 24.9615Z" fill="url(#paint0_linear_55_5)"/>
<defs>
<linearGradient id="paint0_linear_55_5" x1="25.5" y1="7" x2="35.0921" y2="42.1228" gradientUnits="userSpaceOnUse">
<stop stop-color="#F4C090"/>
<stop offset="1" stop-color="#FF7CA4"/>
</linearGradient>
</defs>
</svg>
