<svg id="Calque_1" data-name="Calque 1" xmlns="http://www.w3.org/2000/svg" viewBox="0 0 256 256"><defs><style>.cls-1{fill:none;}.cls-2{fill:#8fefef;}.cls-10,.cls-2,.cls-6,.cls-7,.cls-9{fill-opacity:0.78;}.cls-3{fill:#519ace;}.cls-4{fill:#3996ac;}.cls-5{fill:#68a0c5;}.cls-6{fill:#72cdd6;}.cls-7{fill:#5fbdff;}.cls-8{fill:#50afad;}.cls-9{fill:#5dd8d5;}.cls-10{fill:#40b7d3;}.cls-11{fill:#77c1c1;}</style></defs><path class="cls-1" d="M87.32,138.27c-2.49-1.3-4.75-2.45-6.72-3.42C82.56,135.83,84.82,137,87.32,138.27Z"/><path class="cls-1" d="M14.47,141.93a21.75,21.75,0,0,0-1.31,4.8,22.41,22.41,0,0,1,1.35-4.8c4.8-10.66,16.49-16.44,28.18-16.55C31,125.47,19.29,131.25,14.47,141.93Z"/><path class="cls-1" d="M77.26,178.76h0c-2.74,12.84-3.33,24.4.08,32.82,4.85,11.9,18.89,30,20.1,31.57-1.08-.13-2.15-.35-3.22-.56.76.24,1.51.53,2.28.74l1.2.11-.22-.29h0c-1.21-1.55-15.25-19.67-20.1-31.57-3.41-8.42-2.83-20,0-32.82,12.3-2.65,25.73-7.3,39-12.83h0c-13.3,5.53-26.74,10.19-39,12.84Z"/><path class="cls-1" d="M77.34,39.37c3.93-9.69,13.92-23.44,18.19-29.11-4.27,5.67-14.26,19.42-18.24,29.11-7.86,19.43,4.74,55,18.95,86.11-2.12,4.65-4.18,9.41-6.18,14.2l0,0c2-4.81,4.06-9.52,6.19-14.22C82.07,94.41,69.48,58.8,77.34,39.37Z"/><path class="cls-1" d="M130.58,211c.68,12.44-5.14,25.39-16.52,30.53a21.29,21.29,0,0,1-4.71,1.33,45.53,45.53,0,0,1-5.94.54,42.59,42.59,0,0,0,6-.54,21.29,21.29,0,0,0,4.71-1.33c11.38-5.12,17.2-18.09,16.52-30.53a86.58,86.58,0,0,0-7.66-31.88c-.6-1.31-1.37-2.88-2.26-4.66.88,1.77,1.64,3.35,2.25,4.66A86.77,86.77,0,0,1,130.58,211Z"/><path class="cls-1" d="M36.45,174.7a69.07,69.07,0,0,0,8,4A38.29,38.29,0,0,0,59.19,181a38.23,38.23,0,0,1-14.75-2.34A69.16,69.16,0,0,1,36.45,174.7Z"/><path class="cls-1" d="M107.44,148.58c3.22,6.44,6.26,12.29,8.87,17.34C113.7,160.87,110.68,155,107.44,148.58Z"/><path class="cls-2" d="M130.53,159.72l-.22-.09c-8.07-3.7-15.79-7.48-22.87-11,3.24,6.44,6.26,12.29,8.87,17.34C121.12,163.92,125.83,161.86,130.53,159.72Z"/><path class="cls-3" d="M247.93,146.73a21.1,21.1,0,0,0-1.32-4.8c-5.14-11.38-18.07-17.2-30.53-16.5a86.41,86.41,0,0,0-31.89,7.64c-9.27,4.27-30,15.86-53.43,26.56l-.23.09,2.92,1.33c30.34,13.66,64.36,25.26,83.17,17.65.74-.3,1.51-.64,2.3-1,11.82-5.55,27.85-18,29.3-19.12h0A43.89,43.89,0,0,0,247.93,146.73Z"/><path class="cls-4" d="M218.92,177.69c-.79.37-1.56.71-2.3,1-18.81,7.61-52.83-4-83.17-17.65l-2.92-1.33c-4.7,2.14-9.41,4.2-14.22,6.2h0c1.65,3.2,3.11,6.09,4.34,8.57.89,1.78,1.66,3.35,2.26,4.66A86.58,86.58,0,0,1,130.6,211c.68,12.44-5.14,25.41-16.52,30.53a21.29,21.29,0,0,1-4.71,1.33,42.59,42.59,0,0,1-6,.54,43.75,43.75,0,0,1-6-.28l.22.29-1.2-.11c-.77-.21-1.52-.5-2.28-.74h-.09l-.09,0a42.16,42.16,0,0,1-5.19-1.37,121.79,121.79,0,0,0,39.72,7.31h4a122,122,0,0,0,115.1-86.66c.21-1.09.45-2.17.58-3.26h0C246.77,159.7,230.74,172.14,218.92,177.69Z"/><path class="cls-5" d="M107.44,148.58c-3.57-7.09-7.35-14.8-11-22.88l-.1-.22c-2.13,4.7-4.19,9.41-6.19,14.22C95.15,142.31,101,145.33,107.44,148.58Z"/><path class="cls-6" d="M84.3,154.66a197.16,197.16,0,0,0-7,24.1c12.31-2.65,25.75-7.31,39.05-12.84-2.61-5-5.65-10.9-8.87-17.34-6.45-3.25-12.29-6.27-17.34-8.88C88,144.69,86.07,149.69,84.3,154.66Z"/><path class="cls-7" d="M77.34,211.58c4.85,11.9,18.89,30,20.1,31.57h0a43.75,43.75,0,0,0,6,.28,45.53,45.53,0,0,0,5.94-.54,21.29,21.29,0,0,0,4.71-1.33c11.38-5.14,17.2-18.09,16.52-30.53a86.77,86.77,0,0,0-7.65-31.88c-.61-1.31-1.37-2.89-2.25-4.66-1.23-2.48-2.69-5.37-4.34-8.57h0c-13.29,5.53-26.72,10.18-39,12.83C74.51,191.6,73.93,203.16,77.34,211.58Z"/><path class="cls-8" d="M95.53,10.26c-4.27,5.67-14.26,19.42-18.19,29.11-7.86,19.43,4.73,55,19,86.11l.1-.23c10.72-23.38,22.28-44.15,26.55-53.45a86.63,86.63,0,0,0,7.66-31.89c.68-12.45-5.14-25.41-16.52-30.53a21.75,21.75,0,0,0-4.8-1.31,43.25,43.25,0,0,0-11.86-.28h0C97.17,8.1,96.5,9,95.53,10.26Z"/><path class="cls-2" d="M13.16,146.73a21.75,21.75,0,0,1,1.31-4.8c4.82-10.68,16.52-16.46,28.22-16.55.79,0,1.57,0,2.35.05a86.36,86.36,0,0,1,31.88,7.64c1.06.49,2.3,1.1,3.68,1.78,2,1,4.23,2.12,6.72,3.42l2.74,1.41c2-4.79,4.06-9.55,6.18-14.2C82,94.41,69.43,58.8,77.29,39.37c4-9.69,14-23.44,18.24-29.11,1-1.28,1.64-2.16,1.89-2.47h0c-1.15.14-2.29.38-3.43.6A122.11,122.11,0,0,0,7.51,123.46v4a122.49,122.49,0,0,0,7.33,39.79,43.19,43.19,0,0,1-1.39-5.37c-.24-.79-.54-1.56-.77-2.35a8,8,0,0,1-.1-1.19l.3.23h0A43.09,43.09,0,0,1,13.16,146.73Z"/><path class="cls-9" d="M36.45,174.7a69.16,69.16,0,0,0,8,4A38.23,38.23,0,0,0,59.19,181a92.73,92.73,0,0,0,18-2.28h0a197.16,197.16,0,0,1,7-24.1c1.77-5,3.73-10,5.8-15l0,0-2.74-1.41c-2.5-1.28-4.76-2.44-6.72-3.42-1.38-.68-2.62-1.29-3.68-1.78A86.36,86.36,0,0,0,45,125.43c-.78,0-1.56-.06-2.35-.05-11.69.11-23.38,5.89-28.18,16.55a22.41,22.41,0,0,0-1.35,4.8,43.09,43.09,0,0,0-.29,11.84h0A231.58,231.58,0,0,0,36.45,174.7Z"/><path class="cls-10" d="M94.2,242.59c1.07.21,2.14.43,3.22.56-1.21-1.55-15.25-19.67-20.1-31.57-3.41-8.42-2.82-20-.08-32.82h0a92.73,92.73,0,0,1-18,2.28,38.29,38.29,0,0,1-14.76-2.34,69.07,69.07,0,0,1-8-4,231.58,231.58,0,0,1-23.57-16.13h0c.12,1.11.36,2.21.57,3.3a122.29,122.29,0,0,0,27.24,47.47c.87.92,1.76,1.81,2.66,2.7,1.16,1.18,2.32,2.35,3.54,3.47,1.88,1.77,3.87,3.49,5.89,5.13l.71.6A122.4,122.4,0,0,0,94,242.55l.09,0Z"/><path class="cls-11" d="M168.48,80.87a5,5,0,0,0,6.64,6.65l21.08-9.69a5,5,0,0,1,4.2,0l21.07,9.69a5,5,0,0,0,3,.38,5,5,0,0,0,2.66-1.39,5,5,0,0,0,1-5.65l-9.7-21.08a5,5,0,0,1,0-4.19l9.7-21.08a5,5,0,0,0-6.67-6.66l-21.07,9.7a5,5,0,0,1-4.2,0l-21.08-9.7a5.08,5.08,0,0,0-3-.37,5,5,0,0,0-3.66,7l9.68,21.09a4.9,4.9,0,0,1,0,4.19Z"/></svg>