<svg width="73" height="86" viewBox="0 0 73 86" fill="none" xmlns="http://www.w3.org/2000/svg">
<path d="M65.3072 32.0481C67.4689 31.1529 69.1908 31.3501 70.4729 32.6398C70.9858 33.1557 71.4251 33.8872 71.7908 34.8343L72.38 36.5565C73.0811 38.6518 72.809 40.3184 71.5637 41.5563C70.9266 42.1897 70.219 42.6652 69.4408 42.9829C66.4435 44.196 63.3025 45.4094 60.018 46.6232C56.7045 47.8657 53.2905 49.0941 49.7761 50.3084C49.459 50.4527 49.1563 50.5826 48.8681 50.6982C48.5799 50.8137 48.349 50.9578 48.1752 51.1306C47.4802 51.8215 47.2137 52.7987 47.3757 54.0622C47.9446 58.2835 48.4992 62.4904 49.0396 66.6829C49.5225 70.8756 50.0771 75.0825 50.7034 79.3036C51.0047 81.1125 50.663 82.5064 49.6784 83.4853C49.2729 83.8883 48.8108 84.2053 48.2918 84.4363C47.7439 84.696 47.0821 84.8411 46.3062 84.8715L43.6761 85.0928C41.8652 85.2405 40.4611 84.8128 39.4639 83.8096C39.122 83.4657 38.867 83.0354 38.6988 82.5187C38.4732 82.0022 38.2913 81.4137 38.1531 80.7534C37.6085 77.0779 37.0924 73.431 36.6048 69.8128C36.0597 66.1948 35.5724 62.5479 35.1427 58.8721C35.06 58.4414 34.9626 58.0539 34.8505 57.7094C34.7385 57.365 34.5684 57.0781 34.3405 56.8488C33.7137 56.2183 32.7526 56.0624 31.4574 56.3813C27.3966 57.6829 23.3219 58.9128 19.2335 60.0709C15.1451 61.229 11.0574 62.3009 6.97034 63.2866C5.01371 63.6931 3.5083 63.3661 2.45409 62.3057C1.85576 61.7038 1.40387 60.7569 1.09841 59.465L0.848997 58.3453C0.462738 56.3929 0.790885 54.8985 1.83343 53.8621C2.20991 53.4878 2.64337 53.1709 3.13381 52.9113C3.5953 52.6804 4.14272 52.4782 4.77609 52.3044C9.17933 51.2892 13.526 50.1593 17.8162 48.9146C22.1064 47.6699 26.3974 46.339 30.689 44.922C31.0061 44.7776 31.2943 44.6621 31.5535 44.5753C31.7843 44.4599 31.9865 44.3159 32.1603 44.1431C32.8843 43.4234 33.165 42.4605 33.0025 41.2544C32.3038 35.3388 31.6481 29.4374 31.0353 23.5502C30.3936 17.6919 29.7087 11.848 28.9806 6.01856C28.7653 4.23812 29.121 2.88729 30.0477 1.96604C30.9165 1.10238 32.1834 0.726132 33.8486 0.837324L36.691 1.00334C38.2992 1.05721 39.5307 1.51405 40.3855 2.37388C41.1547 3.14773 41.6052 4.26697 41.7369 5.73163L45.2383 36.0999C45.321 36.5306 45.4184 36.9181 45.5305 37.2626C45.6141 37.5784 45.7699 37.8509 45.9978 38.0802C46.6816 38.768 47.6716 38.8951 48.9677 38.4613L65.3072 32.0481Z" fill="#F4C090"/>
</svg>
