<svg width="16" height="16" viewBox="0 0 16 16" fill="none" xmlns="http://www.w3.org/2000/svg">
<g clip-path="url(#clip0_44_7)">
<path fill-rule="evenodd" clip-rule="evenodd" d="M8.47136 10.4713C8.34634 10.5963 8.1768 10.6665 8.00003 10.6665C7.82325 10.6665 7.65371 10.5963 7.52869 10.4713L3.75736 6.69999C3.69369 6.6385 3.6429 6.56493 3.60796 6.4836C3.57302 6.40226 3.55463 6.31478 3.55386 6.22626C3.55309 6.13774 3.56996 6.04996 3.60348 5.96803C3.637 5.88609 3.6865 5.81166 3.7491 5.74906C3.81169 5.68647 3.88612 5.63697 3.96806 5.60345C4.04999 5.56993 4.13777 5.55306 4.22629 5.55383C4.31481 5.5546 4.40229 5.57299 4.48363 5.60793C4.56496 5.64287 4.63853 5.69365 4.70003 5.75733L8.00003 9.05733L11.3 5.75733C11.4258 5.63589 11.5942 5.56869 11.769 5.57021C11.9438 5.57173 12.111 5.64184 12.2346 5.76545C12.3582 5.88905 12.4283 6.05626 12.4298 6.23106C12.4313 6.40586 12.3641 6.57426 12.2427 6.69999L8.47136 10.4713Z" fill="#1E1E1E" fill-opacity="0.78"/>
</g>
<defs>
<clipPath id="clip0_44_7">
<rect width="16" height="16" fill="white"/>
</clipPath>
</defs>
</svg>
