<svg width="69" height="29" viewBox="0 0 69 29" fill="none" xmlns="http://www.w3.org/2000/svg">
<g clip-path="url(#clip0_40_2)">
<path d="M15.4832 27.3584C14.4043 27.4149 13.2451 27.2086 12.0056 26.7395C10.767 26.2865 9.48046 25.7147 8.14611 25.024C8.12867 25.0088 8.10292 24.9939 8.06888 24.9795C8.05144 24.9643 8.0257 24.9494 7.99166 24.935C7.60464 25.4893 7.15936 25.8849 6.65584 26.1217C6.16891 26.3576 5.70969 26.4869 5.27815 26.5095C4.69724 26.5399 4.23109 26.3783 3.87969 26.0244C3.52828 25.6706 3.3399 25.2516 3.31452 24.7674C3.28407 24.1864 3.48979 23.6658 3.93168 23.2057C4.39017 22.7447 5.05924 22.4912 5.9389 22.4451C6.50321 22.4155 7.06134 22.4267 7.61328 22.4787C8.18267 22.546 8.93674 22.644 9.8755 22.7728C10.7819 22.9195 11.553 23.0248 12.1888 23.0886C12.8411 23.1515 13.491 23.166 14.1383 23.132C15.7648 23.0468 17.2376 22.7269 18.5566 22.1722C18.6314 22.3301 18.7106 22.5687 18.7938 22.8881C18.818 23.0324 18.8423 23.1768 18.8665 23.3212C18.8907 23.4656 18.9066 23.6104 18.9142 23.7557C18.965 24.724 18.7002 25.5471 18.1199 26.2249C17.5405 26.9188 16.6616 27.2966 15.4832 27.3584ZM10.0287 22.8376C8.45193 22.9203 7.04955 22.6782 5.82156 22.1114C4.61015 21.5437 3.6512 20.7119 2.94469 19.6161C2.23819 18.5203 1.84687 17.246 1.77075 15.7935C1.66164 13.7115 2.00419 11.8324 2.79843 10.1562C3.60926 8.47917 4.7217 7.15853 6.13574 6.19432C7.56555 5.21309 9.12691 4.67812 10.8198 4.5894C11.9318 4.53112 12.7382 4.67497 13.239 5.02095C13.7399 5.36694 14.0114 5.94341 14.0537 6.75039C14.0689 7.0409 14.0571 7.29237 14.0183 7.50479C13.9795 7.71721 13.9013 7.97215 13.7838 8.26962C13.5986 8.23077 13.3559 8.20304 13.0554 8.18642C12.7707 8.15279 12.5288 8.14119 12.3296 8.15162C11.2342 8.20903 10.2885 8.58227 9.49245 9.27134C8.69554 9.94428 8.0931 10.8336 7.68505 11.9393C7.29359 13.0441 7.13127 14.2341 7.19809 15.5091C7.28098 17.0908 7.66807 18.2843 8.35935 19.0896C9.05063 19.8949 9.96056 20.268 11.0892 20.2088C11.9024 20.1662 12.6795 19.907 13.4201 19.4312C14.1765 18.9385 14.8078 18.2823 15.3141 17.4627C15.8203 16.6432 16.1303 15.7288 16.2438 14.7194C15.0715 14.2629 14.2073 13.6528 13.6514 12.8889C13.112 12.1242 12.8165 11.2496 12.7649 10.2651C12.7167 9.34512 12.9832 8.55434 13.5643 7.89271C14.1454 7.23109 14.8924 6.87636 15.8053 6.82852C16.9173 6.77024 17.8028 7.1527 18.4617 7.97591C19.1364 8.78211 19.513 9.9357 19.5917 11.4367C19.6991 13.4864 19.3566 15.3655 18.564 17.0739C17.7706 18.7663 16.6271 20.129 15.1335 21.1621C13.639 22.1791 11.9374 22.7376 10.0287 22.8376ZM26.6568 21.9662C25.3289 22.0358 24.3245 21.7647 23.6434 21.1531C22.9623 20.5415 22.587 19.5739 22.5176 18.2504C22.4864 17.6533 22.5032 17.0213 22.568 16.3543C22.6321 15.6712 22.7392 14.8564 22.8893 13.9099C22.9882 13.2574 23.071 12.6138 23.1376 11.9791C23.2034 11.3283 23.2253 10.7931 23.2033 10.3735C23.1787 9.90542 23.1065 9.48034 22.9866 9.09821C22.8833 8.71521 22.7428 8.41509 22.565 8.19783C23.2277 7.82324 23.9183 7.50383 24.6368 7.2396C25.3718 6.97451 25.9634 6.83022 26.4115 6.80673C27.0919 6.77107 27.5888 6.88259 27.9019 7.14131C28.2308 7.38301 28.4113 7.81051 28.4435 8.42382C28.4638 8.81116 28.4133 9.43688 28.2922 10.301C28.171 11.1651 28.042 12.0377 27.9052 12.9188C27.7665 13.7676 27.6354 14.5998 27.5117 15.4155C27.4047 16.2303 27.3599 16.8072 27.3777 17.1461C27.4107 17.7755 27.5676 18.2285 27.8484 18.5051C28.1292 18.7817 28.56 18.9048 29.141 18.8744C29.838 18.8378 30.522 18.5511 31.1929 18.0143C31.8629 17.4613 32.3842 16.7705 32.7569 15.9417L33.3321 19.7714L31.9285 19.1895C31.2895 20.016 30.5249 20.6711 29.6349 21.1547C28.7449 21.6383 27.7522 21.9088 26.6568 21.9662ZM35.221 21.5174C34.2085 21.5704 33.4489 21.3675 32.9423 20.9085C32.4521 20.4487 32.1801 19.7023 32.1259 18.6694C32.098 18.1368 32.1804 17.1695 32.3733 15.7676C32.5653 14.3496 32.8693 12.5291 33.2854 10.3063L31.7846 8.34582C32.8952 7.62408 33.8084 7.10689 34.5242 6.79425C35.2568 6.48073 35.9467 6.30702 36.594 6.27309C37.2579 6.2383 37.7381 6.35069 38.0346 6.61028C38.3478 6.86899 38.5213 7.32114 38.5551 7.96672C38.5661 8.17653 38.5199 8.56736 38.4168 9.1392C38.3293 9.694 38.2283 10.3062 38.1136 10.9758C37.8122 12.529 37.5754 13.8847 37.4031 15.0428C37.2465 16.1838 37.1903 17.174 37.2342 18.0132C37.2892 19.0623 37.5849 19.7832 38.1215 20.1758C37.2169 21.0162 36.25 21.4634 35.221 21.5174ZM45.8933 20.958C44.9638 21.0068 44.1299 20.8158 43.3917 20.3852C42.6701 19.9536 42.096 19.3202 41.6695 18.4848C41.242 17.6333 40.9987 16.6426 40.9395 15.5129C40.8423 13.6569 41.1713 11.9969 41.9268 10.5332C42.698 9.05239 43.8097 7.87744 45.262 7.00833C46.7309 6.13834 48.4364 5.65246 50.3783 5.55069C51.0753 5.51416 51.7343 5.54436 52.3552 5.64129C52.5772 6.06662 52.7119 6.73118 52.7592 7.63499C51.448 7.70371 50.2516 8.05772 49.1701 8.69702C48.0876 9.32021 47.2399 10.1333 46.6268 11.1365C46.0294 12.1227 45.7603 13.1806 45.8195 14.3104C45.8609 15.1012 46.059 15.7058 46.4138 16.1242C46.7844 16.5256 47.2766 16.7101 47.8908 16.6779C49.1189 16.6136 50.061 15.8521 50.7169 14.3936C51.3727 12.9351 51.7796 10.6965 51.9377 7.67805C52.3571 7.10583 52.8255 6.67668 53.3431 6.39061C53.8606 6.10455 54.4514 5.94412 55.1153 5.90932C55.6962 5.87888 56.1532 6.02486 56.4864 6.34726C56.8186 6.65353 57.0008 7.1133 57.033 7.7266C57.0499 8.04939 57.0163 8.52046 56.9323 9.13987C56.8482 9.75929 56.741 10.4122 56.6105 11.0988C56.3637 12.4226 56.1814 13.5488 56.0637 14.4775C55.945 15.39 55.9065 16.2417 55.9479 17.0325C56.0029 18.0816 56.2986 18.8024 56.8351 19.1951C55.8641 20.039 54.8143 20.4905 53.6857 20.5497C52.8393 20.594 52.1714 20.3944 51.6821 19.9507C51.2086 19.49 50.9495 18.832 50.9046 17.9765C50.8903 17.7021 50.8999 17.4103 50.9337 17.1011L50.6783 16.9931C50.2745 18.1795 49.6418 19.127 48.7802 19.8357C47.9344 20.5274 46.972 20.9015 45.8933 20.958ZM63.3726 20.042C62.3768 20.0942 61.64 19.8496 61.1623 19.3082C60.7011 18.7659 60.4393 17.8976 60.3767 16.7033C60.3428 16.0577 60.4164 14.921 60.5974 13.2931C60.7775 11.6491 61.041 9.53144 61.3878 6.94003C61.4305 6.48465 61.4824 6.04497 61.5434 5.62099C61.6043 5.19702 61.6583 4.79769 61.7053 4.423L60.2096 2.55933C60.9286 1.98759 61.6862 1.51901 62.4826 1.15359C63.2789 0.788186 64.0422 0.586344 64.7725 0.54807C65.5526 0.50719 66.1075 0.615671 66.4373 0.873513C66.7661 1.11522 66.9467 1.54272 66.9788 2.15602C67.0008 2.57565 66.9627 3.1198 66.8646 3.78847C66.7831 4.45629 66.6396 5.37009 66.4341 6.52991C66.0858 8.45783 65.8182 10.1793 65.6313 11.6942C65.4602 13.1921 65.4126 14.6673 65.4888 16.1198C65.5277 16.8622 65.6141 17.3999 65.748 17.7327C65.8985 18.0647 66.115 18.3851 66.3976 18.694C65.9697 19.1048 65.4787 19.4218 64.9246 19.6451C64.3879 19.8836 63.8705 20.0159 63.3726 20.042Z" fill="#8884B3"/>
</g>
<defs>
<clipPath id="clip0_40_2">
<rect width="67" height="25" fill="white" transform="translate(0.391712 3.7704) rotate(-3)"/>
</clipPath>
</defs>
</svg>
