<svg width="186" height="78" viewBox="0 0 186 78" fill="none" xmlns="http://www.w3.org/2000/svg">
<g clip-path="url(#clip0_70_8)">
<path d="M41.0929 73.7762C38.1553 73.9301 34.9989 73.3684 31.6239 72.0911C28.2511 70.8576 24.748 69.3007 21.1146 67.4199C21.0671 67.3784 20.997 67.3379 20.9044 67.2987C20.8569 67.2572 20.7868 67.2167 20.6941 67.1775C19.6402 68.687 18.4278 69.7641 17.0567 70.4088C15.7309 71.0511 14.4804 71.4031 13.3054 71.4647C11.7236 71.5476 10.4543 71.1074 9.4975 70.144C8.54065 69.1805 8.02769 68.0397 7.9586 66.7213C7.87568 65.1392 8.43585 63.7217 9.63907 62.4688C10.8875 61.2136 12.7093 60.5232 15.1046 60.3977C16.6412 60.3171 18.1609 60.3476 19.6638 60.4892C21.2142 60.6724 23.2675 60.9393 25.8236 61.2901C28.2917 61.6896 30.3913 61.9762 32.1225 62.1498C33.8989 62.3211 35.6683 62.3606 37.4309 62.2682C41.8599 62.0361 45.8701 61.165 49.4616 59.6547C49.6654 60.0846 49.8808 60.7344 50.1076 61.6039C50.1735 61.997 50.2395 62.3902 50.3054 62.7833C50.3712 63.1765 50.4146 63.5708 50.4353 63.9663C50.5735 66.6031 49.8525 68.8443 48.2726 70.6898C46.6949 72.5793 44.3017 73.608 41.0929 73.7762ZM26.2407 61.4666C21.9474 61.6916 18.1288 61.0324 14.7851 59.489C11.4865 57.9433 8.87534 55.6784 6.95158 52.6945C5.02782 49.7107 3.9623 46.2411 3.75502 42.2859C3.45791 36.6168 4.39067 31.5003 6.55331 26.9361C8.76113 22.3696 11.7902 18.7736 15.6406 16.1481C19.5338 13.4763 23.7853 12.0196 28.395 11.778C31.4229 11.6193 33.6187 12.011 34.9823 12.9531C36.346 13.8952 37.0853 15.4649 37.2004 17.6622C37.2419 18.4533 37.2098 19.138 37.1041 19.7164C36.9985 20.2948 36.7857 20.989 36.4656 21.799C35.9614 21.6932 35.3005 21.6177 34.4824 21.5724C33.7071 21.4809 33.0484 21.4493 32.5061 21.4777C29.5233 21.634 26.9482 22.6503 24.7806 24.5266C22.6107 26.359 20.9703 28.7805 19.8592 31.7912C18.7933 34.7995 18.3513 38.0397 18.5333 41.5114C18.759 45.8183 19.813 49.0681 21.6953 51.2609C23.5776 53.4536 26.0552 54.4696 29.1285 54.3085C31.3429 54.1925 33.4586 53.4867 35.4752 52.1912C37.5349 50.8494 39.2539 49.0626 40.6324 46.8312C42.011 44.5997 42.8549 42.1097 43.1639 39.3613C39.9719 38.1184 37.6189 36.457 36.1051 34.3771C34.6364 32.2948 33.8319 29.9131 33.6914 27.2325C33.5601 24.7275 34.2857 22.5743 35.868 20.7727C37.4502 18.9712 39.4843 18.0053 41.9699 17.875C44.9978 17.7163 47.409 18.7577 49.2032 20.9993C51.0404 23.1945 52.0659 26.3356 52.2801 30.4226C52.5726 36.0038 51.6399 41.1205 49.4818 45.7725C47.3214 50.3806 44.2078 54.0911 40.1407 56.9043C36.0713 59.6734 31.4379 61.1942 26.2407 61.4666ZM71.5177 59.0937C67.9022 59.2832 65.1672 58.5451 63.3125 56.8797C61.4579 55.2143 60.4361 52.5796 60.2472 48.976C60.162 47.3501 60.2078 45.6291 60.3843 43.813C60.5589 41.953 60.8505 39.7343 61.2593 37.157C61.5285 35.3803 61.7541 33.6278 61.9354 31.8996C62.1144 30.1276 62.174 28.6703 62.1141 27.5276C62.0473 26.2532 61.8507 25.0957 61.5243 24.0552C61.243 23.0123 60.8603 22.1951 60.3762 21.6035C62.1806 20.5835 64.0611 19.7138 66.0174 18.9943C68.0189 18.2725 69.6297 17.8796 70.8499 17.8157C72.7027 17.7186 74.0556 18.0222 74.9083 18.7267C75.8037 19.3848 76.2953 20.5489 76.3828 22.2189C76.4381 23.2736 76.3007 24.9774 75.9709 27.3302C75.6409 29.6831 75.2896 32.0591 74.917 34.4582C74.5396 36.7694 74.1825 39.0356 73.8458 41.2567C73.5542 43.4754 73.4324 45.0461 73.4808 45.969C73.5706 47.6829 73.9978 48.9164 74.7625 49.6695C75.527 50.4227 76.7002 50.7578 78.282 50.6749C80.1801 50.5754 82.0426 49.7947 83.8693 48.333C85.6937 46.8271 87.1131 44.9461 88.1279 42.6895L89.6941 53.1175L85.8724 51.533C84.1322 53.7834 82.0504 55.5672 79.6271 56.884C77.2035 58.2008 74.5005 58.9374 71.5177 59.0937ZM94.8375 57.8716C92.0806 58.0161 90.0123 57.4634 88.6328 56.2137C87.2981 54.9617 86.5573 52.9292 86.4099 50.1167C86.3339 48.6665 86.5583 46.0328 87.0834 42.2154C87.6061 38.3542 88.4339 33.3972 89.567 27.3448L85.4805 22.0065C88.5044 20.0412 90.991 18.633 92.9402 17.7817C94.935 16.928 96.8135 16.455 98.5761 16.3626C100.384 16.2679 101.691 16.5739 102.499 17.2807C103.351 17.9852 103.824 19.2164 103.916 20.9742C103.946 21.5455 103.82 22.6097 103.539 24.1668C103.301 25.6775 103.026 27.3444 102.714 29.1676C101.893 33.3971 101.248 37.0883 100.779 40.2418C100.353 43.3487 100.2 46.045 100.319 48.3302C100.469 51.1867 101.274 53.1495 102.735 54.2187C100.272 56.507 97.6394 57.7247 94.8375 57.8716ZM123.897 56.3486C121.366 56.4813 119.096 55.9613 117.086 54.7887C115.121 53.6136 113.558 51.8889 112.396 49.6142C111.232 47.2955 110.57 44.598 110.409 41.5218C110.144 36.468 111.04 31.9481 113.097 27.9625C115.197 23.9304 118.224 20.7311 122.178 18.3646C126.178 15.9957 130.822 14.6727 136.11 14.3956C138.008 14.2961 139.802 14.3783 141.493 14.6423C142.097 15.8004 142.464 17.61 142.593 20.071C139.022 20.2581 135.765 21.222 132.82 22.9628C129.872 24.6597 127.564 26.8738 125.894 29.6053C124.268 32.2906 123.535 35.1713 123.696 38.2475C123.809 40.4008 124.349 42.0472 125.315 43.1864C126.324 44.2793 127.664 44.7819 129.336 44.6942C132.681 44.519 135.246 42.4455 137.032 38.4741C138.817 34.5026 139.925 28.4073 140.356 20.1882C141.498 18.6301 142.773 17.4615 144.183 16.6826C145.592 15.9037 147.2 15.4668 149.008 15.3721C150.59 15.2892 151.834 15.6867 152.741 16.5646C153.646 17.3985 154.142 18.6504 154.23 20.3204C154.276 21.1993 154.184 22.482 153.956 24.1686C153.727 25.8552 153.435 27.6332 153.08 29.5026C152.407 33.1073 151.911 36.1739 151.59 38.7026C151.267 41.1873 151.162 43.5064 151.275 45.6597C151.425 48.5163 152.23 50.479 153.691 51.5482C151.047 53.846 148.189 55.0756 145.116 55.2366C142.811 55.3574 140.992 54.8138 139.66 53.6056C138.371 52.3512 137.665 50.5594 137.543 48.2302C137.504 47.483 137.53 46.6884 137.622 45.8464L136.927 45.5523C135.827 48.7828 134.104 51.3628 131.758 53.2926C129.455 55.1759 126.835 56.1947 123.897 56.3486ZM171.492 53.8543C168.781 53.9964 166.774 53.3304 165.474 51.8562C164.218 50.3795 163.505 48.0154 163.334 44.7633C163.242 43.0055 163.443 39.9101 163.935 35.4777C164.426 31.0011 165.143 25.2348 166.088 18.1786C166.204 16.9387 166.345 15.7415 166.511 14.587C166.677 13.4325 166.824 12.3452 166.952 11.3249L162.88 6.25032C164.837 4.6935 166.9 3.41761 169.069 2.42261C171.237 1.42763 173.316 0.878025 175.304 0.773808C177.428 0.662497 178.939 0.957882 179.837 1.65997C180.732 2.31811 181.224 3.48216 181.312 5.15213C181.371 6.29475 181.268 7.77643 181.001 9.59718C180.779 11.4156 180.388 13.9038 179.828 17.0619C178.88 22.3115 178.151 26.9988 177.642 31.1238C177.176 35.2024 177.047 39.2193 177.254 43.1745C177.36 45.1959 177.595 46.6599 177.96 47.5662C178.37 48.4701 178.96 49.3426 179.729 50.1837C178.564 51.3023 177.227 52.1656 175.718 52.7735C174.257 53.4229 172.848 53.7832 171.492 53.8543Z" fill="white"/>
</g>
<defs>
<clipPath id="clip0_70_8">
<rect width="182.436" height="68.0731" fill="white" transform="translate(0 9.54797) rotate(-3)"/>
</clipPath>
</defs>
</svg>
