<svg width="564" height="564" viewBox="0 0 564 564" fill="none" xmlns="http://www.w3.org/2000/svg">
<g clip-path="url(#clip0_114_174)">
<path d="M287.926 356.245L287.398 356.025C268.517 347.367 250.451 338.51 233.884 330.16C241.462 345.23 248.535 358.933 254.637 370.742C265.851 366.071 277.021 361.313 287.926 356.245Z" fill="#8FEFEF" fill-opacity="0.78"/>
<path d="M489.402 400.66C517.316 389.314 559.748 356.378 563.361 353.536C564.397 344.317 564.175 335.001 562.7 325.842C562.119 321.986 561.076 318.214 559.594 314.606C547.565 287.971 517.316 274.355 488.146 275.986C462.353 277.119 437.015 283.184 413.505 293.853C391.826 303.855 343.203 330.976 288.455 356.025L287.926 356.245C360.585 389.535 443.974 419.035 489.402 400.66Z" fill="#519ACE"/>
<path d="M270.169 401.718C280.834 425.217 286.913 450.536 288.081 476.316C289.667 505.441 276.052 535.8 249.416 547.785C245.877 549.243 242.18 550.286 238.4 550.891C229.175 552.373 219.79 552.58 210.509 551.508L211.037 552.191L208.239 551.927C206.389 551.42 204.604 550.715 202.776 550.164C198.562 549.339 194.405 548.25 190.328 546.904C220.146 557.727 251.56 563.505 283.278 564H292.619C353.234 563.153 412.008 543.044 460.438 506.582C508.869 470.121 544.444 419.198 562.017 361.18C562.502 358.625 563.075 356.091 563.361 353.535C559.748 356.377 517.316 389.314 489.402 400.66C443.974 419.034 360.585 389.534 287.926 356.245C276.911 361.246 265.895 366.071 254.637 370.742C261.269 383.586 266.754 394.359 270.169 401.718Z" fill="#3996AC"/>
<path d="M233.884 330.16C225.534 313.571 216.677 295.527 208.019 276.624L207.777 276.096C202.798 287.111 197.973 298.127 193.302 309.385C205.111 315.488 218.792 322.56 233.884 330.16Z" fill="#68A0C5"/>
<path d="M163.252 400.792C192.046 394.602 223.507 383.696 254.637 370.742C248.535 358.933 241.418 345.23 233.884 330.16C218.792 322.559 205.111 315.487 193.302 309.385C180.348 340.493 169.442 371.998 163.252 400.792Z" fill="#72CDD6" fill-opacity="0.78"/>
<path d="M163.428 477.616C174.774 505.463 207.645 547.873 210.465 551.508C219.746 552.581 229.131 552.373 238.356 550.891C242.136 550.286 245.832 549.244 249.372 547.785C276.008 535.756 289.623 505.441 288.037 476.316C286.869 450.536 280.79 425.217 270.125 401.718C266.71 394.315 261.313 383.586 254.703 370.742C223.573 383.696 192.112 394.602 163.318 400.793C156.818 430.843 155.452 457.898 163.428 477.616Z" fill="#5FBDFF" fill-opacity="0.78"/>
<path d="M207.777 276.096L208.019 275.567C233.113 220.841 260.167 172.24 270.169 150.473C280.83 126.957 286.909 101.624 288.081 75.8315C289.667 46.6841 276.052 16.3471 249.416 4.3621C245.8 2.91401 242.03 1.88648 238.18 1.29976C229 -0.189455 219.659 -0.404452 210.42 0.660853C207.358 4.58242 174.73 46.7502 163.428 74.5537C145.032 120.026 174.51 203.37 207.777 276.096Z" fill="#50AFAD"/>
<path d="M13.9017 361.312C13.3289 359.462 12.6239 357.677 12.0952 355.805C11.9481 354.886 11.8671 353.959 11.8528 353.029L12.5578 353.579C11.5074 344.347 11.7298 335.014 13.2188 325.842C13.8055 321.992 14.833 318.222 16.2811 314.606C28.3102 287.97 58.6031 274.355 87.7284 275.985C113.513 277.129 138.842 283.194 162.348 293.853C169.751 297.268 180.458 302.665 193.192 309.385C197.863 298.149 202.688 287.001 207.667 276.096C174.399 203.392 144.922 120.026 163.318 74.5537C174.73 46.7503 207.358 4.58245 210.421 0.660889C207.733 0.969326 205.067 1.54214 202.401 2.04886C144.484 19.7138 93.6742 55.3161 57.2975 103.722C20.9207 152.128 0.857211 210.836 0 271.381L0 280.766C0.5139 312.545 6.31394 344.018 17.1623 373.892C15.8043 369.774 14.7151 365.572 13.9017 361.312Z" fill="#8FEFEF" fill-opacity="0.78"/>
<path d="M163.252 400.793C169.442 371.998 180.348 340.493 193.302 309.385C180.48 302.776 169.773 297.268 162.458 293.853C138.952 283.194 113.624 277.129 87.8386 275.986C58.7133 274.355 28.3542 287.971 16.3912 314.606C14.9055 318.217 13.841 321.988 13.2187 325.842C11.7265 334.999 11.4967 344.317 12.5358 353.536C16.2811 356.466 58.6252 389.336 86.4286 400.66C106.169 408.636 133.223 407.248 163.252 400.793Z" fill="#5DD8D5" fill-opacity="0.78"/>
<path d="M83.873 478.695C86.5828 481.449 89.3147 484.181 92.1567 486.824C96.563 490.944 101.212 494.976 105.948 498.809L107.623 500.219C135.878 522.713 168.134 539.659 202.688 550.164C205.265 550.649 207.821 551.2 210.42 551.508C207.6 547.873 174.73 505.463 163.384 477.615C155.408 457.897 156.774 430.843 163.208 400.792C133.179 407.248 106.125 408.636 86.4065 400.66C58.6472 389.336 16.3031 356.466 12.5578 353.535C12.8442 356.135 13.417 358.713 13.9017 361.268C26.4838 402.646 48.283 440.633 77.6601 472.372C79.687 474.531 81.78 476.602 83.873 478.695Z" fill="#40B7D3" fill-opacity="0.78"/>
<path d="M516.368 63.1857C517.376 61.0034 517.689 58.5647 517.266 56.1986C516.844 53.8326 515.705 51.6533 514.004 49.955C512.304 48.2566 510.123 47.1211 507.756 46.7017C505.389 46.2822 502.951 46.5991 500.77 47.6096L451.442 70.3017C449.901 71.01 448.225 71.3767 446.529 71.3767C444.833 71.3767 443.157 71.01 441.616 70.3017L392.288 47.6096C390.109 46.6138 387.678 46.3083 385.32 46.7343C382.962 47.1602 380.792 48.2971 379.099 49.9924C377.406 51.6877 376.272 53.8603 375.849 56.2186C375.427 58.5769 375.736 61.008 376.734 63.1857L399.405 112.536C400.123 114.074 400.495 115.751 400.495 117.449C400.495 119.146 400.123 120.823 399.405 122.362L376.734 171.69C375.736 173.867 375.427 176.298 375.849 178.657C376.272 181.015 377.406 183.187 379.099 184.883C380.792 186.578 382.962 187.715 385.32 188.141C387.678 188.567 390.109 188.261 392.288 187.266L441.616 164.573C443.157 163.865 444.833 163.499 446.529 163.499C448.225 163.499 449.901 163.865 451.442 164.573L500.77 187.266C502.953 188.267 505.391 188.576 507.754 188.151C510.118 187.727 512.295 186.589 513.994 184.891C515.692 183.193 516.83 181.015 517.254 178.652C517.679 176.288 517.37 173.851 516.368 171.668L493.676 122.34C492.968 120.799 492.601 119.123 492.601 117.427C492.601 115.731 492.968 114.055 493.676 112.514L516.368 63.1857Z" fill="#77C1C1"/>
</g>
<defs>
<clipPath id="clip0_114_174">
<rect width="564" height="564" fill="white"/>
</clipPath>
</defs>
</svg>
